# xmcd CD database file
#
# Track frame offsets:
#	150
#	16903
#	34042
#	52235
#	70099
#	86927
#	102546
#	118578
#	132630
#	147812
#	163611
#	177651
#	194542
#	210265
#	227683
#	243214
#	259946
#	276752
#	292169
#	308437
#
# Disc length: 4309 seconds
#
# Revision: 2
# Processed by: cddbd v1.4b41PL1 Copyright (c) Steve Scherf et al.
# Submitted via: Feurio! 1.50.2ß - http://www.feurio.com
#
DISCID=2e10d314
DTITLE=Various Artist - Bravo Hits 30 [CD1]
DYEAR=1900
DGENRE=
TTITLE0=Bon Jovi - It's my life
TTITLE1=Sonique - It feels so good
TTITLE2=Anastacia - I'm outta love
TTITLE3=Jennifer Lopez - Let's get loud
TTITLE4=Loona - Latino lover
TTITLE5=Zlatko and Jürgen - Großer Bruder
TTITLE6=Gigi D'Agostino - Another way
TTITLE7=Vengaboys - Uncle Sam from Jamaica
TTITLE8=Sasha - Chemical Reaction 
TTITLE9=Britney Spears - Oops!...I did it again
TTITLE10=Nsync - I'll never stop
TTITLE11=Lara Fabian - I will love again
TTITLE12=Love Connection - The bomb
TTITLE13=Paul van Dyk - We are alive
TTITLE14=Dr. Motte and Westbam - Love Parade 2000
TTITLE15=Schiller - Ein schöner Tag
TTITLE16=Scooter - She's the sun
TTITLE17=Deichkind feat. Nina - Bon Voyage
TTITLE18=Laith AI Deen - Bilder von dir
TTITLE19=Alex - Ich will nur Dich
EXTD=
EXTT0=
EXTT1=
EXTT2=
EXTT3=
EXTT4=
EXTT5=
EXTT6=
EXTT7=
EXTT8=
EXTT9=
EXTT10=
EXTT11=
EXTT12=
EXTT13=
EXTT14=
EXTT15=
EXTT16=
EXTT17=
EXTT18=
EXTT19=
PLAYORDER=
